<svg width="211" height="31" viewBox="0 0 211 31" fill="none" xmlns="http://www.w3.org/2000/svg">
<g id="GLIGLE LOGO TEXT">
<g id="G">
<path d="M0 0.500141V30.5L5.99997 24.5015L5.99997 6.49849L0 0.500141Z" fill="white"/>
<path d="M0 30.5H30.0011L24.0012 24.5015H5.99997L0 30.5Z" fill="white"/>
<path d="M0 0.500141L5.99997 6.49849H30.0011V0.5L0 0.500141Z" fill="white"/>
<path d="M24.0012 18.4992L24.0012 24.5015L30.0011 30.5V12.5007L24.0012 18.4992Z" fill="white"/>
<path d="M12.0012 12.5007V18.4992H24.0012L30.0011 12.5007H12.0012Z" fill="white"/>
</g>
<path id="L" d="M36.0033 0.5V6.49997V12.4999V18.4999V24.4999V30.4999H42.0033H66.0032V24.4999H42.0033V0.5H36.0033Z" fill="white"/>
<g id="I">
<path d="M84.0054 0.5L84.0053 6.4985L84.0054 24.5014V30.4999H90.0054V24.5014L90.0053 6.4985L90.0054 0.5H84.0054Z" fill="white"/>
<path d="M72.0056 24.5014L72.0055 30.4999H84.0054H90.0054H102.007V24.5014H90.0054H84.0054H72.0056Z" fill="white"/>
<path d="M72.0055 0.500012L72.0054 6.4985H84.0053H90.0053H102.007V0.500012L90.0054 0.5H84.0054L72.0055 0.500012Z" fill="white"/>
</g>
<g id="G_2">
<path d="M108.009 0.500141V30.5L114.009 24.5015L114.009 6.49849L108.009 0.500141Z" fill="white"/>
<path d="M108.009 30.5H138.01L132.01 24.5015H114.009L108.009 30.5Z" fill="white"/>
<path d="M108.009 0.500141L114.009 6.49849H138.01V0.5L108.009 0.500141Z" fill="white"/>
<path d="M132.01 18.4992L132.01 24.5015L138.01 30.5V12.5007L132.01 18.4992Z" fill="white"/>
<path d="M120.01 12.5007V18.4992H132.01L138.01 12.5007H120.01Z" fill="white"/>
</g>
<path id="L_2" d="M144.012 0.5V6.49997V12.4999V18.4999V24.4999V30.4999H150.012H174.012V24.4999H150.012V0.5H144.012Z" fill="white"/>
<path id="E" d="M180.014 0.5V6.49997V12.4999V18.4999V24.4999V30.4999H186.014H210.014V24.4999H186.014V18.4999H204.014V12.4999H186.014V6.49997H210.014V0.5H186.014H180.014Z" fill="white"/>
</g>
</svg>
