<svg width="20" height="14" viewBox="0 0 20 14" fill="none" xmlns="http://www.w3.org/2000/svg">
<g id="Gmail">
<path id="Vector" d="M4.62915 6.50293V1.07617L9.87655 5.01172L15.124 1.07617V6.50293L9.87655 10.4385L4.62915 6.50293Z" fill="white"/>
<path id="Vector_2" d="M4.62915 6.50293L0.693604 3.55127V12.7479C0.693604 13.4414 1.25558 14 1.94567 14H4.62915V6.50293Z" fill="white"/>
<path id="Vector_3" d="M4.62915 1.07642L3.69822 0.379497C2.45982 -0.54973 0.693604 0.333378 0.693604 1.88095V3.55151L4.62915 6.50317V1.07642Z" fill="white"/>
<path id="Vector_4" d="M15.124 6.50293V14H17.8075C18.501 14 19.0596 13.438 19.0596 12.7479V3.55127L15.124 6.50293Z" fill="white"/>
<path id="Vector_5" d="M16.055 0.379497L15.124 1.07642V6.50317L19.0596 3.55151V1.88095C19.0596 0.333378 17.2917 -0.54973 16.055 0.379497Z" fill="white"/>
</g>
</svg>
